<?xml version="1.0" encoding="UTF-8" standalone="no"?>
<!DOCTYPE svg PUBLIC "-//W3C//DTD SVG 1.1//EN"
 "http://www.w3.org/Graphics/SVG/1.1/DTD/svg11.dtd">
<!-- Generated by graphviz version 2.40.1 (20161225.0304)
 -->
<!-- Title: %3 Pages: 1 -->
<svg width="242pt" height="188pt"
 viewBox="0.00 0.00 242.00 188.00" xmlns="http://www.w3.org/2000/svg" xmlns:xlink="http://www.w3.org/1999/xlink">
<g id="graph0" class="graph" transform="scale(1 1) rotate(0) translate(4 184)">
<title>%3</title>
<polygon fill="#ffffff" stroke="transparent" points="-4,4 -4,-184 238,-184 238,4 -4,4"/>
<!-- Mul(Rational(1, 2), Symbol(&#39;r&#39;), Pow(Integer(2), Rational(2, 3)))_() -->
<g id="node1" class="node">
<title>Mul(Rational(1, 2), Symbol(&#39;r&#39;), Pow(Integer(2), Rational(2, 3)))_()</title>
<ellipse fill="none" stroke="#000000" cx="99" cy="-162" rx="27" ry="18"/>
<text text-anchor="middle" x="99" y="-158.3" font-family="Times,serif" font-size="14.00" fill="#000000">Mul</text>
</g>
<!-- Rational(1, 2)_(0,) -->
<g id="node2" class="node">
<title>Rational(1, 2)_(0,)</title>
<ellipse fill="none" stroke="#000000" cx="27" cy="-90" rx="27" ry="18"/>
<text text-anchor="middle" x="27" y="-86.3" font-family="Times,serif" font-size="14.00" fill="#000000">1/2</text>
</g>
<!-- Mul(Rational(1, 2), Symbol(&#39;r&#39;), Pow(Integer(2), Rational(2, 3)))_()&#45;&gt;Rational(1, 2)_(0,) -->
<g id="edge1" class="edge">
<title>Mul(Rational(1, 2), Symbol(&#39;r&#39;), Pow(Integer(2), Rational(2, 3)))_()&#45;&gt;Rational(1, 2)_(0,)</title>
<path fill="none" stroke="#000000" d="M83.7307,-146.7307C73.803,-136.803 60.6847,-123.6847 49.5637,-112.5637"/>
<polygon fill="#000000" stroke="#000000" points="51.7933,-109.8436 42.2473,-105.2473 46.8436,-114.7933 51.7933,-109.8436"/>
</g>
<!-- Symbol(&#39;r&#39;)_(1,) -->
<g id="node3" class="node">
<title>Symbol(&#39;r&#39;)_(1,)</title>
<ellipse fill="none" stroke="#000000" cx="99" cy="-90" rx="27" ry="18"/>
<text text-anchor="middle" x="99" y="-86.3" font-family="Times,serif" font-size="14.00" fill="#000000">r</text>
</g>
<!-- Mul(Rational(1, 2), Symbol(&#39;r&#39;), Pow(Integer(2), Rational(2, 3)))_()&#45;&gt;Symbol(&#39;r&#39;)_(1,) -->
<g id="edge2" class="edge">
<title>Mul(Rational(1, 2), Symbol(&#39;r&#39;), Pow(Integer(2), Rational(2, 3)))_()&#45;&gt;Symbol(&#39;r&#39;)_(1,)</title>
<path fill="none" stroke="#000000" d="M99,-143.8314C99,-136.131 99,-126.9743 99,-118.4166"/>
<polygon fill="#000000" stroke="#000000" points="102.5001,-118.4132 99,-108.4133 95.5001,-118.4133 102.5001,-118.4132"/>
</g>
<!-- Pow(Integer(2), Rational(2, 3))_(2,) -->
<g id="node4" class="node">
<title>Pow(Integer(2), Rational(2, 3))_(2,)</title>
<ellipse fill="none" stroke="#000000" cx="171" cy="-90" rx="27" ry="18"/>
<text text-anchor="middle" x="171" y="-86.3" font-family="Times,serif" font-size="14.00" fill="#000000">Pow</text>
</g>
<!-- Mul(Rational(1, 2), Symbol(&#39;r&#39;), Pow(Integer(2), Rational(2, 3)))_()&#45;&gt;Pow(Integer(2), Rational(2, 3))_(2,) -->
<g id="edge3" class="edge">
<title>Mul(Rational(1, 2), Symbol(&#39;r&#39;), Pow(Integer(2), Rational(2, 3)))_()&#45;&gt;Pow(Integer(2), Rational(2, 3))_(2,)</title>
<path fill="none" stroke="#000000" d="M114.2693,-146.7307C124.197,-136.803 137.3153,-123.6847 148.4363,-112.5637"/>
<polygon fill="#000000" stroke="#000000" points="151.1564,-114.7933 155.7527,-105.2473 146.2067,-109.8436 151.1564,-114.7933"/>
</g>
<!-- Integer(2)_(2, 0) -->
<g id="node5" class="node">
<title>Integer(2)_(2, 0)</title>
<ellipse fill="none" stroke="#000000" cx="135" cy="-18" rx="27" ry="18"/>
<text text-anchor="middle" x="135" y="-14.3" font-family="Times,serif" font-size="14.00" fill="#000000">2</text>
</g>
<!-- Pow(Integer(2), Rational(2, 3))_(2,)&#45;&gt;Integer(2)_(2, 0) -->
<g id="edge4" class="edge">
<title>Pow(Integer(2), Rational(2, 3))_(2,)&#45;&gt;Integer(2)_(2, 0)</title>
<path fill="none" stroke="#000000" d="M162.2854,-72.5708C158.0403,-64.0807 152.8464,-53.6929 148.1337,-44.2674"/>
<polygon fill="#000000" stroke="#000000" points="151.237,-42.6477 143.6343,-35.2687 144.976,-45.7782 151.237,-42.6477"/>
</g>
<!-- Rational(2, 3)_(2, 1) -->
<g id="node6" class="node">
<title>Rational(2, 3)_(2, 1)</title>
<ellipse fill="none" stroke="#000000" cx="207" cy="-18" rx="27" ry="18"/>
<text text-anchor="middle" x="207" y="-14.3" font-family="Times,serif" font-size="14.00" fill="#000000">2/3</text>
</g>
<!-- Pow(Integer(2), Rational(2, 3))_(2,)&#45;&gt;Rational(2, 3)_(2, 1) -->
<g id="edge5" class="edge">
<title>Pow(Integer(2), Rational(2, 3))_(2,)&#45;&gt;Rational(2, 3)_(2, 1)</title>
<path fill="none" stroke="#000000" d="M179.7146,-72.5708C183.9597,-64.0807 189.1536,-53.6929 193.8663,-44.2674"/>
<polygon fill="#000000" stroke="#000000" points="197.024,-45.7782 198.3657,-35.2687 190.763,-42.6477 197.024,-45.7782"/>
</g>
</g>
</svg>
