<?xml version="1.0" encoding="UTF-8" standalone="no"?>
<!DOCTYPE svg PUBLIC "-//W3C//DTD SVG 1.1//EN"
 "http://www.w3.org/Graphics/SVG/1.1/DTD/svg11.dtd">
<!-- Generated by graphviz version 2.40.1 (20161225.0304)
 -->
<!-- Title: %3 Pages: 1 -->
<svg width="422pt" height="188pt"
 viewBox="0.00 0.00 422.00 188.00" xmlns="http://www.w3.org/2000/svg" xmlns:xlink="http://www.w3.org/1999/xlink">
<g id="graph0" class="graph" transform="scale(1 1) rotate(0) translate(4 184)">
<title>%3</title>
<polygon fill="#ffffff" stroke="transparent" points="-4,4 -4,-184 418,-184 418,4 -4,4"/>
<!-- Mul(Rational(1, 2), Pow(Integer(6), Rational(1, 3)), Pow(pi, Rational(&#45;1, 3)), Pow(Symbol(&#39;V&#39;), Rational(1, 3)))_() -->
<g id="node1" class="node">
<title>Mul(Rational(1, 2), Pow(Integer(6), Rational(1, 3)), Pow(pi, Rational(&#45;1, 3)), Pow(Symbol(&#39;V&#39;), Rational(1, 3)))_()</title>
<ellipse fill="none" stroke="#000000" cx="135" cy="-162" rx="27" ry="18"/>
<text text-anchor="middle" x="135" y="-158.3" font-family="Times,serif" font-size="14.00" fill="#000000">Mul</text>
</g>
<!-- Rational(1, 2)_(0,) -->
<g id="node2" class="node">
<title>Rational(1, 2)_(0,)</title>
<ellipse fill="none" stroke="#000000" cx="27" cy="-90" rx="27" ry="18"/>
<text text-anchor="middle" x="27" y="-86.3" font-family="Times,serif" font-size="14.00" fill="#000000">1/2</text>
</g>
<!-- Mul(Rational(1, 2), Pow(Integer(6), Rational(1, 3)), Pow(pi, Rational(&#45;1, 3)), Pow(Symbol(&#39;V&#39;), Rational(1, 3)))_()&#45;&gt;Rational(1, 2)_(0,) -->
<g id="edge1" class="edge">
<title>Mul(Rational(1, 2), Pow(Integer(6), Rational(1, 3)), Pow(pi, Rational(&#45;1, 3)), Pow(Symbol(&#39;V&#39;), Rational(1, 3)))_()&#45;&gt;Rational(1, 2)_(0,)</title>
<path fill="none" stroke="#000000" d="M115.6918,-149.1278C98.6445,-137.763 73.5981,-121.0654 54.4656,-108.3104"/>
<polygon fill="#000000" stroke="#000000" points="56.4031,-105.3956 46.1411,-102.7607 52.5201,-111.2199 56.4031,-105.3956"/>
</g>
<!-- Pow(Integer(6), Rational(1, 3))_(1,) -->
<g id="node3" class="node">
<title>Pow(Integer(6), Rational(1, 3))_(1,)</title>
<ellipse fill="none" stroke="#000000" cx="99" cy="-90" rx="27" ry="18"/>
<text text-anchor="middle" x="99" y="-86.3" font-family="Times,serif" font-size="14.00" fill="#000000">Pow</text>
</g>
<!-- Mul(Rational(1, 2), Pow(Integer(6), Rational(1, 3)), Pow(pi, Rational(&#45;1, 3)), Pow(Symbol(&#39;V&#39;), Rational(1, 3)))_()&#45;&gt;Pow(Integer(6), Rational(1, 3))_(1,) -->
<g id="edge2" class="edge">
<title>Mul(Rational(1, 2), Pow(Integer(6), Rational(1, 3)), Pow(pi, Rational(&#45;1, 3)), Pow(Symbol(&#39;V&#39;), Rational(1, 3)))_()&#45;&gt;Pow(Integer(6), Rational(1, 3))_(1,)</title>
<path fill="none" stroke="#000000" d="M126.2854,-144.5708C122.0403,-136.0807 116.8464,-125.6929 112.1337,-116.2674"/>
<polygon fill="#000000" stroke="#000000" points="115.237,-114.6477 107.6343,-107.2687 108.976,-117.7782 115.237,-114.6477"/>
</g>
<!-- Pow(pi, Rational(&#45;1, 3))_(2,) -->
<g id="node6" class="node">
<title>Pow(pi, Rational(&#45;1, 3))_(2,)</title>
<ellipse fill="none" stroke="#000000" cx="171" cy="-90" rx="27" ry="18"/>
<text text-anchor="middle" x="171" y="-86.3" font-family="Times,serif" font-size="14.00" fill="#000000">Pow</text>
</g>
<!-- Mul(Rational(1, 2), Pow(Integer(6), Rational(1, 3)), Pow(pi, Rational(&#45;1, 3)), Pow(Symbol(&#39;V&#39;), Rational(1, 3)))_()&#45;&gt;Pow(pi, Rational(&#45;1, 3))_(2,) -->
<g id="edge3" class="edge">
<title>Mul(Rational(1, 2), Pow(Integer(6), Rational(1, 3)), Pow(pi, Rational(&#45;1, 3)), Pow(Symbol(&#39;V&#39;), Rational(1, 3)))_()&#45;&gt;Pow(pi, Rational(&#45;1, 3))_(2,)</title>
<path fill="none" stroke="#000000" d="M143.7146,-144.5708C147.9597,-136.0807 153.1536,-125.6929 157.8663,-116.2674"/>
<polygon fill="#000000" stroke="#000000" points="161.024,-117.7782 162.3657,-107.2687 154.763,-114.6477 161.024,-117.7782"/>
</g>
<!-- Pow(Symbol(&#39;V&#39;), Rational(1, 3))_(3,) -->
<g id="node9" class="node">
<title>Pow(Symbol(&#39;V&#39;), Rational(1, 3))_(3,)</title>
<ellipse fill="none" stroke="#000000" cx="315" cy="-90" rx="27" ry="18"/>
<text text-anchor="middle" x="315" y="-86.3" font-family="Times,serif" font-size="14.00" fill="#000000">Pow</text>
</g>
<!-- Mul(Rational(1, 2), Pow(Integer(6), Rational(1, 3)), Pow(pi, Rational(&#45;1, 3)), Pow(Symbol(&#39;V&#39;), Rational(1, 3)))_()&#45;&gt;Pow(Symbol(&#39;V&#39;), Rational(1, 3))_(3,) -->
<g id="edge4" class="edge">
<title>Mul(Rational(1, 2), Pow(Integer(6), Rational(1, 3)), Pow(pi, Rational(&#45;1, 3)), Pow(Symbol(&#39;V&#39;), Rational(1, 3)))_()&#45;&gt;Pow(Symbol(&#39;V&#39;), Rational(1, 3))_(3,)</title>
<path fill="none" stroke="#000000" d="M158.1634,-152.7347C189.6687,-140.1325 246.2073,-117.5171 282.1018,-103.1593"/>
<polygon fill="#000000" stroke="#000000" points="283.6556,-106.3075 291.6404,-99.3438 281.0558,-99.8081 283.6556,-106.3075"/>
</g>
<!-- Integer(6)_(1, 0) -->
<g id="node4" class="node">
<title>Integer(6)_(1, 0)</title>
<ellipse fill="none" stroke="#000000" cx="27" cy="-18" rx="27" ry="18"/>
<text text-anchor="middle" x="27" y="-14.3" font-family="Times,serif" font-size="14.00" fill="#000000">6</text>
</g>
<!-- Pow(Integer(6), Rational(1, 3))_(1,)&#45;&gt;Integer(6)_(1, 0) -->
<g id="edge5" class="edge">
<title>Pow(Integer(6), Rational(1, 3))_(1,)&#45;&gt;Integer(6)_(1, 0)</title>
<path fill="none" stroke="#000000" d="M83.7307,-74.7307C73.803,-64.803 60.6847,-51.6847 49.5637,-40.5637"/>
<polygon fill="#000000" stroke="#000000" points="51.7933,-37.8436 42.2473,-33.2473 46.8436,-42.7933 51.7933,-37.8436"/>
</g>
<!-- Rational(1, 3)_(1, 1) -->
<g id="node5" class="node">
<title>Rational(1, 3)_(1, 1)</title>
<ellipse fill="none" stroke="#000000" cx="99" cy="-18" rx="27" ry="18"/>
<text text-anchor="middle" x="99" y="-14.3" font-family="Times,serif" font-size="14.00" fill="#000000">1/3</text>
</g>
<!-- Pow(Integer(6), Rational(1, 3))_(1,)&#45;&gt;Rational(1, 3)_(1, 1) -->
<g id="edge6" class="edge">
<title>Pow(Integer(6), Rational(1, 3))_(1,)&#45;&gt;Rational(1, 3)_(1, 1)</title>
<path fill="none" stroke="#000000" d="M99,-71.8314C99,-64.131 99,-54.9743 99,-46.4166"/>
<polygon fill="#000000" stroke="#000000" points="102.5001,-46.4132 99,-36.4133 95.5001,-46.4133 102.5001,-46.4132"/>
</g>
<!-- pi_(2, 0) -->
<g id="node7" class="node">
<title>pi_(2, 0)</title>
<ellipse fill="none" stroke="#000000" cx="171" cy="-18" rx="27" ry="18"/>
<text text-anchor="middle" x="171" y="-14.3" font-family="Times,serif" font-size="14.00" fill="#000000">pi</text>
</g>
<!-- Pow(pi, Rational(&#45;1, 3))_(2,)&#45;&gt;pi_(2, 0) -->
<g id="edge7" class="edge">
<title>Pow(pi, Rational(&#45;1, 3))_(2,)&#45;&gt;pi_(2, 0)</title>
<path fill="none" stroke="#000000" d="M171,-71.8314C171,-64.131 171,-54.9743 171,-46.4166"/>
<polygon fill="#000000" stroke="#000000" points="174.5001,-46.4132 171,-36.4133 167.5001,-46.4133 174.5001,-46.4132"/>
</g>
<!-- Rational(&#45;1, 3)_(2, 1) -->
<g id="node8" class="node">
<title>Rational(&#45;1, 3)_(2, 1)</title>
<ellipse fill="none" stroke="#000000" cx="243" cy="-18" rx="27" ry="18"/>
<text text-anchor="middle" x="243" y="-14.3" font-family="Times,serif" font-size="14.00" fill="#000000">&#45;1/3</text>
</g>
<!-- Pow(pi, Rational(&#45;1, 3))_(2,)&#45;&gt;Rational(&#45;1, 3)_(2, 1) -->
<g id="edge8" class="edge">
<title>Pow(pi, Rational(&#45;1, 3))_(2,)&#45;&gt;Rational(&#45;1, 3)_(2, 1)</title>
<path fill="none" stroke="#000000" d="M186.2693,-74.7307C196.197,-64.803 209.3153,-51.6847 220.4363,-40.5637"/>
<polygon fill="#000000" stroke="#000000" points="223.1564,-42.7933 227.7527,-33.2473 218.2067,-37.8436 223.1564,-42.7933"/>
</g>
<!-- Symbol(&#39;V&#39;)_(3, 0) -->
<g id="node10" class="node">
<title>Symbol(&#39;V&#39;)_(3, 0)</title>
<ellipse fill="none" stroke="#000000" cx="315" cy="-18" rx="27" ry="18"/>
<text text-anchor="middle" x="315" y="-14.3" font-family="Times,serif" font-size="14.00" fill="#000000">V</text>
</g>
<!-- Pow(Symbol(&#39;V&#39;), Rational(1, 3))_(3,)&#45;&gt;Symbol(&#39;V&#39;)_(3, 0) -->
<g id="edge9" class="edge">
<title>Pow(Symbol(&#39;V&#39;), Rational(1, 3))_(3,)&#45;&gt;Symbol(&#39;V&#39;)_(3, 0)</title>
<path fill="none" stroke="#000000" d="M315,-71.8314C315,-64.131 315,-54.9743 315,-46.4166"/>
<polygon fill="#000000" stroke="#000000" points="318.5001,-46.4132 315,-36.4133 311.5001,-46.4133 318.5001,-46.4132"/>
</g>
<!-- Rational(1, 3)_(3, 1) -->
<g id="node11" class="node">
<title>Rational(1, 3)_(3, 1)</title>
<ellipse fill="none" stroke="#000000" cx="387" cy="-18" rx="27" ry="18"/>
<text text-anchor="middle" x="387" y="-14.3" font-family="Times,serif" font-size="14.00" fill="#000000">1/3</text>
</g>
<!-- Pow(Symbol(&#39;V&#39;), Rational(1, 3))_(3,)&#45;&gt;Rational(1, 3)_(3, 1) -->
<g id="edge10" class="edge">
<title>Pow(Symbol(&#39;V&#39;), Rational(1, 3))_(3,)&#45;&gt;Rational(1, 3)_(3, 1)</title>
<path fill="none" stroke="#000000" d="M330.2693,-74.7307C340.197,-64.803 353.3153,-51.6847 364.4363,-40.5637"/>
<polygon fill="#000000" stroke="#000000" points="367.1564,-42.7933 371.7527,-33.2473 362.2067,-37.8436 367.1564,-42.7933"/>
</g>
</g>
</svg>
